<svg width="256" height="256" viewBox="0 0 256 256" fill="none" xmlns="http://www.w3.org/2000/svg">
<path d="M8 56C8 47.1634 15.1634 40 24 40H232C240.837 40 248 47.1634 248 56V200C248 208.837 240.837 216 232 216H24C15.1634 216 8 208.837 8 200V56Z" fill="url(#paint0_linear_5487_3)"/>
<path fill-rule="evenodd" clip-rule="evenodd" d="M24 40C15.1634 40 8 47.1634 8 56V200C8 208.837 15.1634 216 24 216H232C240.837 216 248 208.837 248 200V56C248 47.1634 240.837 40 232 40H24ZM24 48C19.5817 48 16 51.5817 16 56V200C16 204.418 19.5817 208 24 208H232C236.418 208 240 204.418 240 200V56C240 51.5817 236.418 48 232 48H24Z" fill="url(#paint1_linear_5487_3)"/>
<path d="M53.1667 48H54.1667V208H53.1667V48Z" fill="#377A92"/>
<path d="M90.3333 48H91.3333V208H90.3333V48Z" fill="#377A92"/>
<path d="M127.5 48H128.5V208H127.5V48Z" fill="#377A92"/>
<path d="M164.667 48H165.667V208H164.667V48Z" fill="#377A92"/>
<path d="M201.833 48H202.833V208H201.833V48Z" fill="#377A92"/>
<path d="M240 79.8008V80.8008H16V79.8008H240Z" fill="#377A92"/>
<path d="M240 111.602V112.602H16V111.602H240Z" fill="#377A92"/>
<path d="M240 143.398V144.398H16V143.398H240Z" fill="#377A92"/>
<path d="M240 175.199V176.199H16V175.199H240Z" fill="#377A92"/>
<path fill-rule="evenodd" clip-rule="evenodd" d="M232 48C236.418 48 240 51.5817 240 56V200C240 204.418 236.418 208 232 208H24C19.5817 208 16 204.418 16 200V56C16 51.5817 19.5817 48 24 48H232ZM25 49C20.5817 49 17 52.5817 17 57V199C17 203.418 20.5817 207 25 207H231C235.418 207 239 203.418 239 199V57C239 52.5817 235.418 49 231 49H25Z" fill="#63D0DF"/>
<path d="M59.1902 129.72H16V134.16H63.1624C64.354 134.16 65.38 133.319 65.6138 132.15L68.7647 116.4L80.6551 175.836C80.975 177.435 83.2576 177.447 83.5937 175.851L99.8529 98.6401L107.408 132.209C107.665 133.35 108.678 134.16 109.847 134.16H134.893C135.98 134.16 136.943 134.863 137.274 135.898L143.415 155.085C143.537 155.464 144.076 155.453 144.182 155.07L154.926 116.4L169.051 164.814C169.469 166.248 171.498 166.256 171.928 164.825L183.794 125.28L186.317 132.486C186.668 133.489 187.614 134.16 188.676 134.16H240V129.72H192.725C191.638 129.72 190.675 129.018 190.344 127.982L185.269 112.128C184.82 110.724 182.827 110.742 182.404 112.154L170.471 151.92L156.429 99.7781C156.026 98.2843 153.9 98.3035 153.525 99.8043L143.824 138.6L141.693 131.502C141.376 130.444 140.403 129.72 139.299 129.72H114.093C112.911 129.72 111.891 128.893 111.647 127.738L101.324 78.9522C100.988 77.3654 98.7229 77.3665 98.3886 78.9536L82.0882 156.36L70.2375 101.071C69.8984 99.4892 67.6401 99.4912 67.3036 101.074L61.6356 127.74C61.3902 128.894 60.3706 129.72 59.1902 129.72Z" fill="url(#paint2_linear_5487_3)"/>
<defs>
<linearGradient id="paint0_linear_5487_3" x1="248" y1="40" x2="6.11676" y2="213.373" gradientUnits="userSpaceOnUse">
<stop stop-color="#102A4C"/>
<stop offset="1" stop-color="#072142"/>
</linearGradient>
<linearGradient id="paint1_linear_5487_3" x1="248" y1="40" x2="6.11676" y2="213.373" gradientUnits="userSpaceOnUse">
<stop stop-color="#BEBEBE"/>
<stop offset="1" stop-color="#9E9E9E"/>
</linearGradient>
<linearGradient id="paint2_linear_5487_3" x1="234" y1="132.001" x2="22" y2="130.501" gradientUnits="userSpaceOnUse">
<stop stop-color="#63D0DF"/>
<stop offset="0.5" stop-color="#FFD7A0"/>
<stop offset="1" stop-color="#63D0DF"/>
</linearGradient>
</defs>
</svg>
