<svg width="32" height="32" viewBox="0 0 32 32" fill="none" xmlns="http://www.w3.org/2000/svg">
<rect x="2" y="6" width="28" height="20" rx="3" fill="url(#paint0_linear_5487_42)"/>
<path fill-rule="evenodd" clip-rule="evenodd" d="M27 6C28.6569 6 30 7.34315 30 9V23C30 24.6569 28.6569 26 27 26H5C3.34315 26 2 24.6569 2 23V9C2 7.34315 3.34315 6 5 6H27ZM5 7C3.89543 7 3 7.89543 3 9V23C3 24.1046 3.89543 25 5 25H27C28.1046 25 29 24.1046 29 23V9C29 7.89543 28.1046 7 27 7H5Z" fill="url(#paint1_linear_5487_42)"/>
<path d="M8.08588 15.7598H3V16.2798H8.54784C8.6433 16.2798 8.72546 16.2124 8.74402 16.1187L9.12448 14.1998L10.2886 20.0715C10.3734 20.499 10.9835 20.502 11.0726 20.0755L12.7329 12.1198L13.6259 16.1234C13.6463 16.2148 13.7274 16.2798 13.8211 16.2798H16.8655C16.9527 16.2798 17.0298 16.3363 17.0561 16.4193L17.4283 17.5925C17.5487 17.9721 18.0895 17.9617 18.1952 17.5777L19.1254 14.1998L20.5508 19.1295C20.6617 19.5132 21.2046 19.5153 21.3184 19.1325L22.4761 15.2398L22.7903 16.1454C22.8182 16.2259 22.8941 16.2798 22.9792 16.2798H29V15.7598H23.4473C23.3601 15.7598 23.283 15.7034 23.2566 15.6203L22.8697 14.4006C22.7506 14.025 22.2174 14.0298 22.105 14.4075L20.9296 18.3598L19.6264 13.477C19.4931 12.9777 18.7823 12.984 18.658 13.4857L17.8367 16.7998L17.5699 15.9028C17.5447 15.818 17.4667 15.7598 17.3782 15.7598H14.3129C14.2183 15.7598 14.1366 15.6935 14.1172 15.6009L13.1254 10.8711C13.0364 10.447 12.4308 10.4473 12.3423 10.8715L10.671 18.8798L9.51738 13.4494C9.42755 13.0265 8.82382 13.027 8.7347 13.4501L8.28158 15.601C8.26209 15.6936 8.18045 15.7598 8.08588 15.7598Z" fill="url(#paint2_linear_5487_42)"/>
<defs>
<linearGradient id="paint0_linear_5487_42" x1="30" y1="6" x2="2.28857" y2="26.3921" gradientUnits="userSpaceOnUse">
<stop stop-color="#102A4C"/>
<stop offset="1" stop-color="#072142"/>
</linearGradient>
<linearGradient id="paint1_linear_5487_42" x1="30" y1="6" x2="1.78029" y2="26.2268" gradientUnits="userSpaceOnUse">
<stop stop-color="#BEBEBE"/>
<stop offset="1" stop-color="#9E9E9E"/>
</linearGradient>
<linearGradient id="paint2_linear_5487_42" x1="28.3036" y1="16.0256" x2="3.69641" y2="15.853" gradientUnits="userSpaceOnUse">
<stop stop-color="#63D0DF"/>
<stop offset="0.5" stop-color="#FFD7A0"/>
<stop offset="1" stop-color="#63D0DF"/>
</linearGradient>
</defs>
</svg>
