<svg width="128" height="128" viewBox="0 0 128 128" fill="none" xmlns="http://www.w3.org/2000/svg">
<rect x="4" y="20" width="120" height="88" rx="8" fill="url(#paint0_linear_5487_17)"/>
<path fill-rule="evenodd" clip-rule="evenodd" d="M116 20C120.418 20 124 23.5817 124 28V100C124 104.418 120.418 108 116 108H12C7.58172 108 4 104.418 4 100V28C4 23.5817 7.58172 20 12 20H116ZM12 24C9.79086 24 8 25.7909 8 28V100C8 102.209 9.79086 104 12 104H116C118.209 104 120 102.209 120 100V28C120 25.7909 118.209 24 116 24H12Z" fill="url(#paint1_linear_5487_17)"/>
<path d="M63 24H64V104H63V24Z" fill="#377A92"/>
<path d="M35 24H36V104H35V24Z" fill="#377A92"/>
<rect x="91" y="24" width="1" height="80" fill="#377A92"/>
<path d="M120 50V51H8V50H120Z" fill="#377A92"/>
<path d="M120 76V77H8V76H120Z" fill="#377A92"/>
<path fill-rule="evenodd" clip-rule="evenodd" d="M116 24C118.209 24 120 25.7909 120 28V100C120 102.209 118.209 104 116 104H12C9.79086 104 8 102.209 8 100V28C8 25.7909 9.79086 24 12 24H116ZM13 25C10.7909 25 9 26.7909 9 29V99C9 101.209 10.7909 103 13 103H115C117.209 103 119 101.209 119 99V29C119 26.7909 117.209 25 115 25H13Z" fill="#63D0DF"/>
<path d="M29.395 64.6H8V66.8H31.3784C32.0924 66.8 32.7075 66.2967 32.8488 65.5969L34.3824 58L40.28 87.215C40.4518 88.0661 41.6662 88.0723 41.8467 87.223L49.9265 49.2L53.6583 65.6322C53.8134 66.3153 54.4206 66.8 55.1211 66.8H67.267C67.9178 66.8 68.4944 67.2197 68.6944 67.839L71.0964 75.2756C71.3399 76.0297 72.414 76.0087 72.628 75.2457L77.4632 58L84.4787 81.8299C84.7031 82.5923 85.7814 82.5964 86.0118 81.8358L91.8971 62.4L93.0981 65.7997C93.3099 66.3992 93.8766 66.8 94.5124 66.8H120V64.6H96.5418C95.891 64.6 95.3144 64.1804 95.1144 63.5611L92.683 56.0332C92.442 55.2872 91.3832 55.297 91.156 56.0473L85.2353 75.6L78.4641 50.683C78.1942 49.69 76.7812 49.7028 76.5295 50.7005L71.9118 69L70.902 65.6653C70.7104 65.0327 70.1273 64.6 69.4664 64.6H57.2466C56.5389 64.6 55.9275 64.1054 55.7797 63.4133L50.7107 39.673C50.5304 38.8286 49.3253 38.8292 49.1458 39.6738L41.0441 77.8L35.1675 50.6303C34.9854 49.7884 33.7841 49.7894 33.6034 50.6316L30.8616 63.4146C30.7133 64.1061 30.1022 64.6 29.395 64.6Z" fill="url(#paint2_linear_5487_17)"/>
<defs>
<linearGradient id="paint0_linear_5487_17" x1="124" y1="20" x2="3.05838" y2="106.686" gradientUnits="userSpaceOnUse">
<stop stop-color="#102A4C"/>
<stop offset="1" stop-color="#072142"/>
</linearGradient>
<linearGradient id="paint1_linear_5487_17" x1="124" y1="20" x2="3.05838" y2="106.686" gradientUnits="userSpaceOnUse">
<stop stop-color="#BEBEBE"/>
<stop offset="1" stop-color="#9E9E9E"/>
</linearGradient>
<linearGradient id="paint2_linear_5487_17" x1="117" y1="65.7307" x2="11.0001" y2="64.9739" gradientUnits="userSpaceOnUse">
<stop stop-color="#63D0DF"/>
<stop offset="0.5" stop-color="#FFD7A0"/>
<stop offset="1" stop-color="#63D0DF"/>
</linearGradient>
</defs>
</svg>
