<svg width="48" height="48" viewBox="0 0 48 48" fill="none" xmlns="http://www.w3.org/2000/svg">
<rect x="2" y="8" width="44" height="32" rx="3.5" fill="url(#paint0_linear_5487_37)"/>
<path fill-rule="evenodd" clip-rule="evenodd" d="M42.5 8C44.433 8 46 9.567 46 11.5V36.5C46 38.433 44.433 40 42.5 40H5.5C3.567 40 2 38.433 2 36.5V11.5C2 9.567 3.567 8 5.5 8H42.5ZM5.75 10C4.7835 10 4 10.7835 4 11.75V36.25C4 37.2165 4.7835 38 5.75 38H42.25C43.2165 38 44 37.2165 44 36.25V11.75C44 10.7835 43.2165 10 42.25 10H5.75Z" fill="url(#paint1_linear_5487_37)"/>
<path fill-rule="evenodd" clip-rule="evenodd" d="M42.2998 10C43.2387 10 44 10.7613 44 11.7002V36.2998C44 37.2387 43.2387 38 42.2998 38H5.7002C4.76131 38 4 37.2387 4 36.2998V11.7002C4 10.7613 4.76131 10 5.7002 10H42.2998ZM6.7002 11C5.76131 11 5 11.7613 5 12.7002V35.2998C5 36.2387 5.76131 37 6.7002 37H41.2998C42.2387 37 43 36.2387 43 35.2998V12.7002C43 11.7613 42.2387 11 41.2998 11H6.7002Z" fill="#63D0DF"/>
<path d="M11.7495 24.4001H4V25.2001H12.4593C12.6503 25.2001 12.8146 25.0652 12.8517 24.8779L13.4223 22.0001L15.3236 31.5898C15.4295 32.1241 16.1922 32.1279 16.3035 31.5947L18.9737 18.8001L20.3315 24.8872C20.3723 25.0701 20.5345 25.2001 20.7219 25.2001H25.264C25.4383 25.2001 25.5925 25.313 25.6452 25.4792L26.3152 27.591C26.4657 28.0655 27.1416 28.0525 27.2738 27.5726L28.8083 22.0001L31.1105 29.9623C31.2491 30.4419 31.9277 30.4445 32.07 29.9659L33.9632 23.6001L34.4251 24.9313C34.4809 25.0922 34.6326 25.2001 34.803 25.2001H44V24.4001H35.5249C35.3506 24.4001 35.1963 24.2872 35.1436 24.1211L34.4552 21.9511C34.3063 21.4816 33.6398 21.4876 33.4994 21.9598L31.584 28.4001L29.3093 19.8774C29.176 19.378 28.4652 19.3844 28.3409 19.886L26.8256 26.0001L26.4348 24.6861C26.3844 24.5165 26.2284 24.4001 26.0514 24.4001H21.4795C21.2902 24.4001 21.1269 24.2675 21.088 24.0822L19.4643 16.3393C19.3531 15.8092 18.5961 15.8095 18.4855 16.3397L15.8015 29.2001L13.9134 20.3121C13.8011 19.7835 13.0464 19.7842 12.9351 20.313L12.1409 24.0826C12.102 24.2677 11.9387 24.4001 11.7495 24.4001Z" fill="url(#paint2_linear_5487_37)"/>
<defs>
<linearGradient id="paint0_linear_5487_37" x1="46" y1="8" x2="1.9052" y2="39.8688" gradientUnits="userSpaceOnUse">
<stop stop-color="#102A4C"/>
<stop offset="1" stop-color="#072142"/>
</linearGradient>
<linearGradient id="paint1_linear_5487_37" x1="46" y1="8" x2="1.65474" y2="39.785" gradientUnits="userSpaceOnUse">
<stop stop-color="#BEBEBE"/>
<stop offset="1" stop-color="#9E9E9E"/>
</linearGradient>
<linearGradient id="paint2_linear_5487_37" x1="42.9286" y1="24.8113" x2="5.0714" y2="24.5458" gradientUnits="userSpaceOnUse">
<stop stop-color="#63D0DF"/>
<stop offset="0.5" stop-color="#FFD7A0"/>
<stop offset="1" stop-color="#63D0DF"/>
</linearGradient>
</defs>
</svg>
