<svg width="24" height="24" viewBox="0 0 24 24" fill="none" xmlns="http://www.w3.org/2000/svg">
<rect x="2" y="4" width="20" height="16" rx="2.25" fill="url(#paint0_linear_5487_46)"/>
<path fill-rule="evenodd" clip-rule="evenodd" d="M19.75 4C20.9926 4 22 5.00736 22 6.25V17.75C22 18.9926 20.9926 20 19.75 20H4.25C3.00736 20 2 18.9926 2 17.75V6.25C2 5.00736 3.00736 4 4.25 4H19.75ZM4.75 5C3.7835 5 3 5.7835 3 6.75V17.25C3 18.2165 3.7835 19 4.75 19H19.25C20.2165 19 21 18.2165 21 17.25V6.75C21 5.7835 20.2165 5 19.25 5H4.75Z" fill="url(#paint1_linear_5487_46)"/>
<path d="M4.48958 12.2798H3V12.8398H4.98723C5.08269 12.8398 5.16485 12.7724 5.18341 12.6787L5.59559 10.5998L6.87872 17.0715C6.96346 17.499 7.57362 17.502 7.66264 17.0755L9.48162 8.35982L10.446 12.6834C10.4664 12.7748 10.5475 12.8398 10.6412 12.8398H12.9433C13.0305 12.8398 13.1076 12.8963 13.134 12.9793L13.5696 14.3525C13.69 14.7321 14.2308 14.7217 14.3365 14.3378L15.3658 10.5998L16.93 16.0095C17.0409 16.3932 17.5838 16.3953 17.6976 16.0125L18.9743 11.7198L19.3162 12.7054C19.3441 12.7859 19.42 12.8398 19.5052 12.8398H21V12.2798H20.0089C19.9217 12.2798 19.8446 12.2234 19.8182 12.1403L19.3679 10.7206C19.2487 10.345 18.7155 10.3498 18.6032 10.7275L17.3088 15.0798L15.8668 9.67703C15.7336 9.17769 15.0228 9.18405 14.8984 9.68569L13.9779 13.3998L13.6874 12.4228C13.6621 12.338 13.5842 12.2798 13.4957 12.2798H11.1707C11.076 12.2798 10.9944 12.2135 10.9749 12.1209L9.87404 6.87113C9.78511 6.44705 9.17952 6.44734 9.09099 6.8715L7.26103 15.6398L5.9885 9.64941C5.89866 9.22653 5.29493 9.22705 5.20582 9.65007L4.68529 12.121C4.66579 12.2136 4.58415 12.2798 4.48958 12.2798Z" fill="url(#paint2_linear_5487_46)"/>
<defs>
<linearGradient id="paint0_linear_5487_46" x1="22" y1="4" x2="0.687776" y2="18.0028" gradientUnits="userSpaceOnUse">
<stop stop-color="#102A4C"/>
<stop offset="1" stop-color="#072142"/>
</linearGradient>
<linearGradient id="paint1_linear_5487_46" x1="30" y1="4" x2="1.78029" y2="24.2268" gradientUnits="userSpaceOnUse">
<stop stop-color="#BEBEBE"/>
<stop offset="1" stop-color="#9E9E9E"/>
</linearGradient>
<linearGradient id="paint2_linear_5487_46" x1="21" y1="12.4985" x2="3" y2="12.5008" gradientUnits="userSpaceOnUse">
<stop stop-color="#63D0DF"/>
<stop offset="0.5" stop-color="#FFD7A0"/>
<stop offset="1" stop-color="#63D0DF"/>
</linearGradient>
</defs>
</svg>
