<svg width="64" height="64" viewBox="0 0 64 64" fill="none" xmlns="http://www.w3.org/2000/svg">
<rect x="2" y="10" width="60" height="44" rx="4" fill="url(#paint0_linear_5487_27)"/>
<path fill-rule="evenodd" clip-rule="evenodd" d="M58 10C60.2091 10 62 11.7909 62 14V50C62 52.2091 60.2091 54 58 54H6C3.79086 54 2 52.2091 2 50V14C2 11.7909 3.79086 10 6 10H58ZM6 12C4.89543 12 4 12.8954 4 14V50C4 51.1046 4.89543 52 6 52H58C59.1046 52 60 51.1046 60 50V14C60 12.8954 59.1046 12 58 12H6Z" fill="url(#paint1_linear_5487_27)"/>
<path d="M31 12H32V52H31V12Z" fill="#22506E"/>
<path d="M17 12H18V52H17V12Z" fill="#22506E"/>
<path d="M45 12H46V52H45V12Z" fill="#22506E"/>
<path d="M60 25V26H4V25H60Z" fill="#22506E"/>
<path d="M60 38V39H4V38H60Z" fill="#22506E"/>
<path fill-rule="evenodd" clip-rule="evenodd" d="M58 12C59.1046 12 60 12.8954 60 14V50C60 51.1046 59.1046 52 58 52H6C4.89543 52 4 51.1046 4 50V14C4 12.8954 4.89543 12 6 12H58ZM7 13C5.89543 13 5 13.8954 5 15V49C5 50.1046 5.89543 51 7 51H57C58.1046 51 59 50.1046 59 49V15C59 13.8954 58.1046 13 57 13H7Z" fill="#63D0DF"/>
<path d="M14.8169 32.5601H4V33.6801H15.8102C16.0966 33.6801 16.3431 33.4777 16.3988 33.1968L17.1912 29.2001L20.0442 43.5898C20.1501 44.1241 20.9128 44.1279 21.0241 43.5947L24.9632 24.7201L26.8571 33.2108C26.9183 33.4851 27.1616 33.6801 27.4427 33.6801H33.7403C34.0018 33.6801 34.2331 33.8495 34.3122 34.0987L35.3433 37.3492C35.524 37.9186 36.3351 37.903 36.4937 37.327L38.7316 29.2001L42.1441 41.0023C42.2827 41.4819 42.9613 41.4845 43.1037 41.0059L45.9485 31.4401L46.5858 33.2768C46.6696 33.5183 46.8971 33.6801 47.1526 33.6801H60V32.5601H48.1641C47.9026 32.5601 47.6713 32.3908 47.5922 32.1416L46.4405 28.5111C46.2916 28.0416 45.6251 28.0476 45.4847 28.5198L42.6176 38.1601L39.3328 25.8528C39.1729 25.2536 38.3199 25.2612 38.1708 25.8632L35.9559 34.8001L35.4173 32.9891C35.3416 32.7346 35.1077 32.5601 34.8422 32.5601H28.5038C28.2199 32.5601 27.9748 32.3611 27.9165 32.0833L25.4538 20.3393C25.3426 19.8092 24.5856 19.8095 24.475 20.3397L20.5221 39.2801L17.6823 25.9121C17.57 25.3835 16.8154 25.3842 16.704 25.913L15.404 32.0838C15.3455 32.3614 15.1006 32.5601 14.8169 32.5601Z" fill="url(#paint2_linear_5487_27)"/>
<defs>
<linearGradient id="paint0_linear_5487_27" x1="62" y1="10" x2="1.52919" y2="53.3431" gradientUnits="userSpaceOnUse">
<stop stop-color="#102A4C"/>
<stop offset="1" stop-color="#072142"/>
</linearGradient>
<linearGradient id="paint1_linear_5487_27" x1="62" y1="10" x2="1.52919" y2="53.3431" gradientUnits="userSpaceOnUse">
<stop stop-color="#BEBEBE"/>
<stop offset="1" stop-color="#9E9E9E"/>
</linearGradient>
<linearGradient id="paint2_linear_5487_27" x1="58.5" y1="33.1356" x2="5.49995" y2="32.764" gradientUnits="userSpaceOnUse">
<stop stop-color="#63D0DF"/>
<stop offset="0.5" stop-color="#FFD7A0"/>
<stop offset="1" stop-color="#63D0DF"/>
</linearGradient>
</defs>
</svg>
